<svg width="16" height="15" viewBox="0 0 16 15" fill="none" xmlns="http://www.w3.org/2000/svg">
<path d="M1.3335 5.58486C1.3335 5.35131 1.3335 5.23454 1.34324 5.13618C1.43723 4.18755 2.18767 3.43711 3.1363 3.34312C3.23466 3.33337 3.35773 3.33337 3.60389 3.33337C3.69873 3.33337 3.74616 3.33337 3.78642 3.33094C4.30057 3.2998 4.7508 2.97529 4.94293 2.49737C4.95797 2.45995 4.97204 2.41776 5.00016 2.33337C5.02829 2.24899 5.04235 2.2068 5.0574 2.16937C5.24953 1.69146 5.69976 1.36695 6.21391 1.33581C6.25417 1.33337 6.29864 1.33337 6.38759 1.33337H9.61274C9.70168 1.33337 9.74616 1.33337 9.78642 1.33581C10.3006 1.36695 10.7508 1.69146 10.9429 2.16937C10.958 2.2068 10.972 2.24899 11.0002 2.33337C11.0283 2.41776 11.0424 2.45995 11.0574 2.49737C11.2495 2.97529 11.6998 3.2998 12.2139 3.33094C12.2542 3.33337 12.3016 3.33337 12.3964 3.33337C12.6426 3.33337 12.7657 3.33337 12.864 3.34312C13.8127 3.43711 14.5631 4.18755 14.6571 5.13618C14.6668 5.23454 14.6668 5.35131 14.6668 5.58486V10.8C14.6668 11.9201 14.6668 12.4802 14.4488 12.908C14.2571 13.2843 13.9511 13.5903 13.5748 13.7821C13.147 14 12.5869 14 11.4668 14H4.5335C3.41339 14 2.85334 14 2.42552 13.7821C2.04919 13.5903 1.74323 13.2843 1.55148 12.908C1.3335 12.4802 1.3335 11.9201 1.3335 10.8V5.58486Z" stroke="white" stroke-linecap="round" stroke-linejoin="round"/>
<path d="M8.00016 11C9.47292 11 10.6668 9.80613 10.6668 8.33337C10.6668 6.86061 9.47292 5.66671 8.00016 5.66671C6.5274 5.66671 5.3335 6.86061 5.3335 8.33337C5.3335 9.80613 6.5274 11 8.00016 11Z" stroke="white" stroke-linecap="round" stroke-linejoin="round"/>
</svg>
