<svg width="20" height="20" viewBox="0 0 20 20" fill="none" xmlns="http://www.w3.org/2000/svg">
<ellipse cx="15.4168" cy="15.8333" rx="2.08333" ry="2.08333" stroke="#004FFE" stroke-width="1.5" stroke-linecap="round" stroke-linejoin="round"/>
<path d="M5.41707 4.47913C5.47454 4.47935 5.52098 4.52608 5.52083 4.58356C5.52069 4.64104 5.47401 4.68753 5.41653 4.68746C5.35906 4.68739 5.3125 4.64077 5.3125 4.5833C5.31235 4.55555 5.32333 4.52891 5.34299 4.50933C5.36264 4.48975 5.38933 4.47887 5.41707 4.47913" stroke="#004FFE" stroke-width="1.5" stroke-linecap="round" stroke-linejoin="round"/>
<path fill-rule="evenodd" clip-rule="evenodd" d="M8.33333 4.58329C8.33333 5.96778 6.78625 7.44852 5.94493 8.15121C5.63415 8.39411 5.19785 8.39399 4.88721 8.15093C4.04667 7.44815 2.5 5.9676 2.5 4.58329V4.58329C2.5 2.97246 3.80584 1.66663 5.41667 1.66663V1.66663C7.0275 1.66663 8.33333 2.97246 8.33333 4.58329V4.58329Z" stroke="#004FFE" stroke-width="1.5" stroke-linecap="round" stroke-linejoin="round"/>
<path d="M10 15.8334H7.5C6.11929 15.8334 5 14.7141 5 13.3334V13.3334C5 11.9527 6.11929 10.8334 7.5 10.8334H12.5C13.8807 10.8334 15 9.71409 15 8.33337V8.33337C15 6.95266 13.8807 5.83337 12.5 5.83337H10.8333" stroke="#004FFE" stroke-width="1.5" stroke-linecap="round" stroke-linejoin="round"/>
</svg>
