<svg width="24" height="24" viewBox="0 0 24 24" fill="none" xmlns="http://www.w3.org/2000/svg">
<circle cx="12" cy="12" r="11" fill="white" stroke="#EE9613" stroke-width="2"/>
<g clip-path="url(#clip0_7466_11301)">
<path d="M11.8542 12.5834H12.1458C12.5713 12.5834 12.9793 12.7524 13.2802 13.0532C13.581 13.3541 13.75 13.7621 13.75 14.1875V17.25H10.25V14.1875C10.25 13.7621 10.419 13.3541 10.7198 13.0532C11.0207 12.7524 11.4287 12.5834 11.8542 12.5834Z" stroke="#EE9613" stroke-width="1.2" stroke-linecap="round" stroke-linejoin="round"/>
<path d="M6.75 15.5V11.3932C6.75 10.9995 6.83854 10.6109 7.00907 10.2561C7.17961 9.90124 7.42776 9.58932 7.73516 9.34339L10.178 7.38914C10.6951 6.97541 11.3377 6.75 12 6.75C12.6623 6.75 13.3049 6.97541 13.822 7.38914L16.2648 9.34339C16.5722 9.58931 16.8204 9.90123 16.9909 10.256C17.1615 10.6109 17.25 10.9995 17.25 11.3932V15.5C17.25 15.9641 17.0656 16.4093 16.7374 16.7374C16.4092 17.0656 15.9641 17.25 15.5 17.25H8.5C8.03587 17.25 7.59075 17.0656 7.26256 16.7374C6.93437 16.4093 6.75 15.9641 6.75 15.5Z" stroke="#EE9613" stroke-width="1.2" stroke-linecap="round" stroke-linejoin="round"/>
</g>
<g clip-path="url(#clip1_7466_11301)">
<path d="M11.8542 12.5834H12.1458C12.5713 12.5834 12.9793 12.7524 13.2802 13.0532C13.581 13.3541 13.75 13.7621 13.75 14.1875V17.25H10.25V14.1875C10.25 13.7621 10.419 13.3541 10.7198 13.0532C11.0207 12.7524 11.4287 12.5834 11.8542 12.5834Z" stroke="#EE9613" stroke-width="1.2" stroke-linecap="round" stroke-linejoin="round"/>
<path d="M6.75 15.5V11.3932C6.75 10.9995 6.83854 10.6109 7.00907 10.2561C7.17961 9.90124 7.42776 9.58932 7.73516 9.34339L10.178 7.38914C10.6951 6.97541 11.3377 6.75 12 6.75C12.6623 6.75 13.3049 6.97541 13.822 7.38914L16.2648 9.34339C16.5722 9.58931 16.8204 9.90123 16.9909 10.256C17.1615 10.6109 17.25 10.9995 17.25 11.3932V15.5C17.25 15.9641 17.0656 16.4093 16.7374 16.7374C16.4092 17.0656 15.9641 17.25 15.5 17.25H8.5C8.03587 17.25 7.59075 17.0656 7.26256 16.7374C6.93437 16.4093 6.75 15.9641 6.75 15.5Z" stroke="#EE9613" stroke-width="1.2" stroke-linecap="round" stroke-linejoin="round"/>
</g>
<defs>
<clipPath id="clip0_7466_11301">
<rect width="14" height="14" fill="white" transform="translate(5 5)"/>
</clipPath>
<clipPath id="clip1_7466_11301">
<rect width="14" height="14" fill="white" transform="translate(5 5)"/>
</clipPath>
</defs>
</svg>
