<svg width="24" height="24" viewBox="0 0 24 24" fill="none" xmlns="http://www.w3.org/2000/svg">
<g clip-path="url(#clip0_7466_15308)">
<path d="M8.25 17.5H14" stroke="#585858" stroke-width="1.5" stroke-linecap="round" stroke-linejoin="round"/>
<path d="M19.2002 16.03L17.2002 6" stroke="#585858" stroke-width="1.5" stroke-linecap="round" stroke-linejoin="round"/>
<path d="M18.2002 6H15.2002" stroke="#585858" stroke-width="1.5" stroke-linecap="round" stroke-linejoin="round"/>
<path d="M19.5 16C19.1022 16 18.7206 16.158 18.4393 16.4393C18.158 16.7206 18 17.1022 18 17.5C18 17.8978 18.158 18.2794 18.4393 18.5607C18.7206 18.842 19.1022 19 19.5 19C19.8978 19 20.2794 18.842 20.5607 18.5607C20.842 18.2794 21 17.8978 21 17.5C21 17.1022 20.842 16.7206 20.5607 16.4393C20.2794 16.158 19.8978 16 19.5 16Z" stroke="#585858" stroke-width="1.5" stroke-linecap="round" stroke-linejoin="round"/>
<path d="M4.5 16C4.10218 16 3.72064 16.158 3.43934 16.4393C3.15804 16.7206 3 17.1022 3 17.5C3 17.8978 3.15804 18.2794 3.43934 18.5607C3.72064 18.842 4.10218 19 4.5 19C4.89782 19 5.27936 18.842 5.56066 18.5607C5.84196 18.2794 6 17.8978 6 17.5C6 17.1022 5.84196 16.7206 5.56066 16.4393C5.27936 16.158 4.89782 16 4.5 16Z" stroke="#585858" stroke-width="1.5" stroke-linecap="round" stroke-linejoin="round"/>
<path d="M4.50023 13.75H4.49023C6.56023 13.74 8.24023 15.42 8.24023 17.49" stroke="#585858" stroke-width="1.5" stroke-linecap="round" stroke-linejoin="round"/>
<path d="M15.82 15H7.29004" stroke="#585858" stroke-width="1.5" stroke-linecap="round" stroke-linejoin="round"/>
<path d="M18.31 11.5699L14 17.4999" stroke="#585858" stroke-width="1.5" stroke-linecap="round" stroke-linejoin="round"/>
<path d="M18.31 11.5699L14 17.4999" stroke="#585858" stroke-width="1.5" stroke-linecap="round" stroke-linejoin="round"/>
</g>
<defs>
<clipPath id="clip0_7466_15308">
<rect width="24" height="24" fill="white"/>
</clipPath>
</defs>
</svg>
