<svg width="20" height="20" viewBox="0 0 20 20" fill="none" xmlns="http://www.w3.org/2000/svg">
<path d="M9.99933 6.66671C9.88433 6.66671 9.791 6.76004 9.79183 6.87504C9.79183 6.99004 9.88517 7.08337 10.0002 7.08337C10.1152 7.08337 10.2085 6.99004 10.2085 6.87504C10.2085 6.76004 10.1152 6.66671 9.99933 6.66671" stroke="#F59F0C" stroke-width="1.5" stroke-linecap="round" stroke-linejoin="round"/>
<path fill-rule="evenodd" clip-rule="evenodd" d="M10 17.5V17.5C5.8575 17.5 2.5 14.1425 2.5 10V10C2.5 5.8575 5.8575 2.5 10 2.5V2.5C14.1425 2.5 17.5 5.8575 17.5 10V10C17.5 14.1425 14.1425 17.5 10 17.5Z" stroke="#F59F0C" stroke-width="1.5" stroke-linecap="round" stroke-linejoin="round"/>
<path d="M10.0002 10V14.1667" stroke="#F59F0C" stroke-width="1.5" stroke-linecap="round" stroke-linejoin="round"/>
</svg>
