<svg width="20" height="20" viewBox="0 0 20 20" fill="none" xmlns="http://www.w3.org/2000/svg">
<path d="M14.1668 14.1667V15.8333C14.167 16.2752 13.9915 16.6991 13.6791 17.0117C13.3667 17.3242 12.943 17.4999 12.5011 17.5H5.00016C4.55826 17.5001 4.1344 17.3247 3.82184 17.0123C3.50928 16.6999 3.33362 16.2762 3.3335 15.8342V6.66667C3.33337 6.22476 3.5088 5.8009 3.82119 5.48834C4.13358 5.17578 4.55734 5.00012 4.99925 5H6.66683" stroke="#F59F0C" stroke-width="1.5" stroke-linecap="round" stroke-linejoin="round"/>
<path d="M10.4165 9.58329H12.9165" stroke="#F59F0C" stroke-width="1.5" stroke-linecap="round" stroke-linejoin="round"/>
<path d="M16.6665 6.25H14.1665C13.4761 6.25 12.9165 5.69036 12.9165 5V2.5" stroke="#F59F0C" stroke-width="1.5" stroke-linecap="round" stroke-linejoin="round"/>
<path fill-rule="evenodd" clip-rule="evenodd" d="M6.6665 12.5V4.16667C6.6665 3.24619 7.4127 2.5 8.33317 2.5H13.3836C13.8256 2.5 14.2495 2.6756 14.5621 2.98816L16.1783 4.60443C16.4909 4.91699 16.6665 5.34092 16.6665 5.78295V12.5C16.6665 13.4205 15.9203 14.1667 14.9998 14.1667H8.33317C7.4127 14.1667 6.6665 13.4205 6.6665 12.5Z" stroke="#F59F0C" stroke-width="1.5" stroke-linecap="round" stroke-linejoin="round"/>
</svg>
