<svg width="20" height="20" viewBox="0 0 20 20" fill="none" xmlns="http://www.w3.org/2000/svg">
<path d="M2.5 5.65163C2.5 6.14413 2.74417 6.60496 3.15167 6.88079L8.13583 10.2583C9.265 11.0233 10.7467 11.0233 11.8758 10.2583L16.8475 6.88829C17.2558 6.61329 17.5 6.15246 17.5 5.65996V5.65163C17.5 4.83163 16.835 4.16663 16.015 4.16663H3.985C3.165 4.16663 2.5 4.83163 2.5 5.65163Z" stroke="#F59F0C" stroke-width="1.5" stroke-linecap="round" stroke-linejoin="round"/>
<path d="M2.5 5.83325V14.1666C2.5 15.0874 3.24583 15.8333 4.16667 15.8333H15.8333C16.7542 15.8333 17.5 15.0874 17.5 14.1666V5.83325" stroke="#F59F0C" stroke-width="1.5" stroke-linecap="round" stroke-linejoin="round"/>
<path d="M2.98828 15.3449L8.10495 10.2283" stroke="#F59F0C" stroke-width="1.5" stroke-linecap="round" stroke-linejoin="round"/>
<path d="M11.9009 10.2341L17.0092 15.3425" stroke="#F59F0C" stroke-width="1.5" stroke-linecap="round" stroke-linejoin="round"/>
</svg>
