<svg width="20" height="20" viewBox="0 0 20 20" fill="none" xmlns="http://www.w3.org/2000/svg">
<path fill-rule="evenodd" clip-rule="evenodd" d="M3.75514 8.91521V8.91521C3.10809 8.18557 3.00053 7.12374 3.48811 6.27917L3.52177 6.22083C4.00937 5.37628 4.98269 4.93848 5.9381 5.13397H5.93819C6.32983 5.21412 6.73727 5.148 7.08347 4.94812V4.94812C7.42967 4.74824 7.69064 4.42845 7.81705 4.04922V4.04922C8.12545 3.12404 8.99126 2.5 9.96649 2.5H10.0338C11.009 2.5 11.8748 3.12404 12.1832 4.04922V4.04922C12.3096 4.42845 12.5706 4.74823 12.9168 4.94811V4.94811C13.263 5.148 13.6704 5.21412 14.0621 5.13398H14.0622C15.0176 4.93851 15.9909 5.3763 16.4785 6.22083L16.5121 6.27917C16.9997 7.12375 16.8922 8.18559 16.2451 8.91525V8.91525C15.9799 9.21435 15.8335 9.60025 15.8335 10V10C15.8335 10.3998 15.9799 10.7857 16.2452 11.0848V11.0848C16.8922 11.8145 16.9998 12.8763 16.5122 13.7209L16.4785 13.7792C15.9909 14.6238 15.0176 15.0615 14.0622 14.8661L14.0619 14.866C13.6703 14.7859 13.263 14.852 12.9168 15.0518V15.0518C12.5706 15.2517 12.3096 15.5715 12.1832 15.9507V15.9507C11.8748 16.8759 11.009 17.5 10.0337 17.5H9.96658C8.99131 17.5 8.12546 16.8759 7.81705 15.9507V15.9507C7.69064 15.5715 7.42967 15.2517 7.08347 15.0518V15.0518C6.73731 14.852 6.32994 14.7859 5.93835 14.866L5.9381 14.866C4.9827 15.0615 4.0094 14.6237 3.5218 13.7792L3.48814 13.7208C3.00052 12.8763 3.10807 11.8144 3.75512 11.0847V11.0847C4.02034 10.7857 4.1668 10.3998 4.1668 10V10C4.16681 9.60024 4.02036 9.21432 3.75514 8.91521Z" stroke="#F59F0C" stroke-width="1.5" stroke-linecap="round" stroke-linejoin="round"/>
<circle cx="10" cy="10" r="2.5" stroke="#F59F0C" stroke-width="1.5" stroke-linecap="round" stroke-linejoin="round"/>
</svg>
