<svg width="14" height="14" viewBox="0 0 14 14" fill="none" xmlns="http://www.w3.org/2000/svg">
<path d="M7.44354 5.11662C7.20073 4.91757 6.83005 4.91757 6.43968 4.91757C6.06325 4.93155 5.79571 4.91757 5.47775 5.13758C5.21285 5.38912 5.07344 5.70354 5.05949 6.08085V8.02159V7.29231V7.96308C5.07344 8.95526 5.21285 9.89154 5.47775 10.7719C5.75658 11.6523 6.20969 12.3999 6.83707 13.0148C7.4784 13.6157 8.28702 13.9441 9.26295 14H12.6115C12.988 13.986 13.3017 13.8533 13.5526 13.6017C13.8175 13.3362 13.9569 13.0148 13.9709 12.6375C13.9709 12.2462 13.8384 11.9108 13.5735 11.6313C13.3226 11.3519 13.0019 11.2051 12.6115 11.1912H9.97398C9.44419 11.1632 9.00502 10.9606 8.65648 10.5833C8.30793 10.206 8.08486 9.77975 7.98727 9.30462C7.90362 8.81551 7.86877 8.28449 7.88271 7.71154V8.02159V6.08085C7.86877 5.68957 7.72238 5.36816 7.44354 5.11662Z" fill="#F59F0C"/>
<path d="M12.9659 1.44635C12.9519 1.82365 12.8125 2.14506 12.5476 2.41058C12.2967 2.67609 11.983 2.81583 11.6065 2.82981L8.33486 3.16472C8.17088 3.17894 8.01493 3.24209 7.88709 3.346L7.37025 3.76613C7.1963 3.90753 5.77042 3.90648 5.59766 3.76363L5.1038 3.35527C4.9752 3.24894 4.81744 3.18422 4.65137 3.16968L1.35932 2.82981C0.522817 2.74596 0.069709 2.28481 0 1.44635C1.70636e-08 1.05506 0.125476 0.712692 0.376429 0.419231C0.641323 0.139744 0.968955 -1.71035e-08 1.35933 0L4.69773 0.455918C4.83462 0.471813 4.96535 0.521882 5.07794 0.601541L5.62536 0.98886C5.78702 1.10324 7.17942 1.10405 7.34193 0.990888L7.91323 0.59307C8.02484 0.515351 8.1539 0.466522 8.28891 0.450935L11.6065 4.49896e-07C11.9969 0.0139748 12.3176 0.160706 12.5685 0.440193C12.8334 0.71968 12.9659 1.05506 12.9659 1.44635Z" fill="#F59F0C"/>
<path d="M12.9659 1.44635C12.9519 1.82365 12.8125 2.14506 12.5476 2.41058C12.2967 2.67609 11.983 2.81583 11.6065 2.82981L8.33486 3.16472C8.17088 3.17894 8.01493 3.24209 7.88709 3.346L7.37025 3.76613C7.1963 3.90753 5.77042 3.90648 5.59766 3.76363L5.1038 3.35527C4.9752 3.24894 4.81744 3.18422 4.65137 3.16968L1.35932 2.82981C0.522817 2.74596 0.069709 2.28481 0 1.44635C1.70636e-08 1.05506 0.125476 0.712692 0.376429 0.419231C0.641323 0.139744 0.968955 -1.71035e-08 1.35933 0L4.69773 0.455918C4.83462 0.471813 4.96535 0.521882 5.07794 0.601541L5.62536 0.98886C5.78702 1.10324 7.17942 1.10405 7.34193 0.990888L7.91323 0.59307C8.02484 0.515351 8.1539 0.466522 8.28891 0.450935L11.6065 4.49896e-07C11.9969 0.0139748 12.3176 0.160706 12.5685 0.440193C12.8334 0.71968 12.9659 1.05506 12.9659 1.44635Z" fill="#F59F0C"/>
<path d="M12.9659 1.44635C12.9519 1.82365 12.8125 2.14506 12.5476 2.41058C12.2967 2.67609 11.983 2.81583 11.6065 2.82981L8.33486 3.16472C8.17088 3.17894 8.01493 3.24209 7.88709 3.346L7.37025 3.76613C7.1963 3.90753 5.77042 3.90648 5.59766 3.76363L5.1038 3.35527C4.9752 3.24894 4.81744 3.18422 4.65137 3.16968L1.35932 2.82981C0.522817 2.74596 0.069709 2.28481 0 1.44635C1.70636e-08 1.05506 0.125476 0.712692 0.376429 0.419231C0.641323 0.139744 0.968955 -1.71035e-08 1.35933 0L4.69773 0.455918C4.83462 0.471813 4.96535 0.521882 5.07794 0.601541L5.62536 0.98886C5.78702 1.10324 7.17942 1.10405 7.34193 0.990888L7.91323 0.59307C8.02484 0.515351 8.1539 0.466522 8.28891 0.450935L11.6065 4.49896e-07C11.9969 0.0139748 12.3176 0.160706 12.5685 0.440193C12.8334 0.71968 12.9659 1.05506 12.9659 1.44635Z" fill="#F59F0C"/>
<path d="M12.9659 1.44635C12.9519 1.82365 12.8125 2.14506 12.5476 2.41058C12.2967 2.67609 11.983 2.81583 11.6065 2.82981L8.33486 3.16472C8.17088 3.17894 8.01493 3.24209 7.88709 3.346L7.37025 3.76613C7.1963 3.90753 5.77042 3.90648 5.59766 3.76363L5.1038 3.35527C4.9752 3.24894 4.81744 3.18422 4.65137 3.16968L1.35932 2.82981C0.522817 2.74596 0.069709 2.28481 0 1.44635C1.70636e-08 1.05506 0.125476 0.712692 0.376429 0.419231C0.641323 0.139744 0.968955 -1.71035e-08 1.35933 0L4.69773 0.455918C4.83462 0.471813 4.96535 0.521882 5.07794 0.601541L5.62536 0.98886C5.78702 1.10324 7.17942 1.10405 7.34193 0.990888L7.91323 0.59307C8.02484 0.515351 8.1539 0.466522 8.28891 0.450935L11.6065 4.49896e-07C11.9969 0.0139748 12.3176 0.160706 12.5685 0.440193C12.8334 0.71968 12.9659 1.05506 12.9659 1.44635Z" fill="#F59F0C"/>
</svg>
